PathFileType	4	(X/Y/Z)	example_trial.trc
DataRate	CameraRate	NumFrames	NumMarkers	Units	OrigDataRate	OrigDataStartFrame	OrigNumFrames
100	100	4	20	mm	100	1452	2322
Frame#	Time	Can1			Can2			Can3			ElbowLE			ElbowME			Elbow3			Elbow4			Elbow5			Elbow6			ForearmRS			ForearmUL			Forearm3			Forearm4			HandRS			HandUL			Hand3			Hand4			Hand5			Hand6			Hand7			
		X1	Y1	Z1	X2	Y2	Z2	X3	Y3	Z3	X4	Y4	Z4	X5	Y5	Z5	X6	Y6	Z6	X7	Y7	Z7	X8	Y8	Z8	X9	Y9	Z9	X10	Y10	Z10	X11	Y11	Z11	X12	Y12	Z12	X13	Y13	Z13	X14	Y14	Z14	X15	Y15	Z15	X16	Y16	Z16	X17	Y17	Z17	X18	Y18	Z18	X19	Y19	Z19	X20	Y20	Z20	

1452	14.51	444.9819376241994	88.91155877109368	177.43695074084488	422.54469010567936	100.50925330332963	175.0934742415842	438.05467959132153	55.33898113096244	185.73955937348754	-0.218621880842786	-69.65571991345395	0.3861920769582188	-1.8281633871401421	89.98311338265596	-0.6675300126283432	104.20024224719316	-34.26814707328872	5.747998685268031	102.31516627537698	32.18008214709218	3.4011174527532777	84.90177795836624	34.422085408152455	57.691314858132905	86.0533791135242	-33.13814106893948	58.860222854770576	168.13187931859073	9.820906994180902	104.56256404728728	197.52957333687928	-9.216376184833837	14.427066195754902	123.59288261633408	-38.5186081802776	19.784607433672015	126.21176051487627	26.968741025988635	6.041852602766767	304.1002174131384	8.71150784048249	131.83336260444065	322.49412286570794	-7.889088122441905	69.07163060405742	401.0467660532578	-33.16109572393715	104.20849317291943	434.8935814701355	-25.950501208447385	110.06285886299028	413.77295729961634	-23.379971127209622	140.00296256538303	419.62778236450487	-14.597070558909707	165.17598633227436	387.66338140338115	-20.18890234148779	154.44376233441767	
1453	14.52	445.0043727734119	88.98647832996032	177.13870425519843	422.6603151819077	100.61116476890112	174.75639445844098	438.12218665439633	55.46323275503086	185.52793648933348	-0.25168952063049055	-69.735803249488	0.4312020535811376	-1.5675627846052445	90.2461131705944	0.5121027199188429	104.222457984944	-34.23562522601087	5.723178573488214	102.30391704348462	32.15415667362313	3.3756029695682717	84.90860111801024	34.417359506973604	57.68144870728608	86.05611665409438	-33.14119518064003	58.85207112370386	168.14731269526956	9.989550559319618	104.50942840719772	197.86720275736315	-12.684729670924371	16.880765980292274	123.54845012360877	-38.605576758762055	19.899524572738756	126.23995699152108	26.831734457655482	5.958771626212366	304.1254743693433	8.799850393716213	131.78443227311033	322.38999611122904	-7.827905593179725	68.74145840143684	401.02692407730217	-33.23412408191655	104.26362225499858	435.15198229535736	-25.91920203631308	109.99637810032422	413.62339775077993	-23.527076858690084	140.15292062109734	419.6329715879468	-14.502859706589497	165.16888528839138	387.6372358057678	-20.112916564804653	154.4718011282016	
1454	14.53	445.1532916525548	89.12688826975008	176.8139852591886	422.75916518282486	100.76465559263573	174.40752136039285	438.1742302165533	55.652669020697545	185.34255551070083	-0.24058378732462948	-69.72103048517452	0.41044317771074745	-1.8159198367080496	89.98488871063394	-0.6489063199562057	104.2063659858272	-34.24840138037769	5.7190861011392515	102.36275161994523	32.977945545018855	3.907854585040166	84.90138663184507	34.41467155416397	57.679275567028	86.05412730357345	-33.146150626540525	58.84576993621449	168.14637294332113	10.175419509527766	104.45973590698694	197.44437811238402	-9.70226596508541	14.449293642393176	123.50354817007268	-38.6917593932355	20.051654671880172	126.28843367404976	26.693631923020977	5.845933550784496	304.12140237123555	8.917650585780809	131.74367038385537	321.9265791849008	-6.656276391314897	67.81990563657966	400.9987481779913	-33.31434939743495	104.34879201239623	434.90180886948656	-26.067875132384533	110.10825844926246	413.59649988001627	-23.478790907872114	140.21496552248544	419.60924349749257	-14.383443762451474	165.20582763862663	387.6524127825318	-20.01075974333466	154.5379300785318	
1455	14.54	445.25211929656916	89.30283544785576	176.45220872318274	422.85648287309243	100.96453295545543	174.00715658021645	438.21843900597594	55.86321552055914	185.12944047573518	-0.24655951424483202	-69.74276472791834	0.4401009237076979	-1.8018031468516185	89.97659902962934	-0.6566412683028429	104.21323808455212	-34.2590326952188	5.739997022361832	102.31951320095907	32.18565716718276	3.3772727289731677	84.90310253788273	34.41458715939987	57.682202037009624	86.06135547007943	-33.1469587651837	58.856717902950265	168.14896580526081	10.33932714115534	104.44004874643312	197.67649436765913	-9.130838057200718	14.435663600254209	123.48000609650825	-38.73858885536704	20.185104956017582	126.31794593975339	26.546252025661847	5.7503388233035455	304.12241444672946	9.051050125592226	131.73780274807567	322.6999690231925	-7.026319400225656	68.181898469283	400.96584451772065	-33.388163549582046	104.53008710381808	434.89331427296446	-26.114028088366894	110.18906816274404	413.5658849450929	-23.42453398469884	140.33795511577372	419.5975469644451	-14.232550132355673	165.283146333359	387.5704908819936	-19.61903719410735	154.38048116653655	
